<svg width="16" xmlns="http://www.w3.org/2000/svg" viewBox="0 0 16 16" height="16" xmlns:xlink="http://www.w3.org/1999/xlink">
<g style="color:#000">
<path style="fill:#0087f6" d="M 8,0 C 3.585877,0 0,3.585877 0,8 c 0,4.414123 3.585877,8 8,8 4.414123,0 8,-3.585877 8,-8 C 16,3.585877 12.414123,0 8,0 z"/>
<path style="fill:#fff;line-height:normal" d="M 10.604167,2 C 10.545507,2 10.485013,2.0023 10.427083,2.0052 10.387643,2.008 10.351553,2.0113 10.3125,2.01562 8.571243,2.162894 7.203125,3.621767 7.203125,5.401037 l 0,1.802083 -1.807292,0 C 3.529212,7.20312 2,8.73754 2,10.604162 2,12.470787 3.529213,14 5.395833,14 c 0.05694,0 0.115626,-0.0024 0.171875,-0.0052 0.0017,-8.9e-5 0.0035,9.1e-5 0.0052,0 0.0035,-1.84e-4 0.0069,1.83e-4 0.01042,0 0.284985,-0.0159 0.560291,-0.06835 0.822917,-0.151042 0.104293,-0.03244 0.207573,-0.06743 0.307292,-0.109375 0.0021,-9.17e-4 0.0031,-0.0043 0.0052,-0.0052 0.0519,-0.02196 0.100493,-0.0485 0.151042,-0.07292 0.343215,-0.167042 0.659505,-0.389157 0.927083,-0.65625 0.423079,-0.422146 0.736163,-0.95032 0.890625,-1.546875 4.17e-4,-0.0016 -4.17e-4,-0.0036 0,-0.0052 0.02753,-0.10699 0.05061,-0.217333 0.06771,-0.328125 2.67e-4,-0.0017 -2.66e-4,-0.0035 0,-0.0052 0.01693,-0.110813 0.0305,-0.219272 0.03646,-0.333333 8.6e-5,-0.0017 -8.5e-5,-0.0035 0,-0.0052 0.0029,-0.05793 0.0052,-0.118427 0.0052,-0.177084 l 0,-1.807291 1.322917,0 0.114583,0 0.369792,0 c 0.197264,0 0.384551,-0.02455 0.572916,-0.05729 l 0,-0.557292 c 0.136979,-0.03078 0.272391,-0.06991 0.401042,-0.119791 l 0.28125,0.489583 c 0.333777,-0.134388 0.633952,-0.3297 0.90625,-0.557292 L 12.479149,7.494792 c 0.09854,-0.09145 0.191355,-0.192303 0.276041,-0.296875 l 0.5,0.286458 C 13.47471,7.207028 13.656054,6.899194 13.781232,6.5625 L 13.25519,6.260417 c 0.03837,-0.123365 0.06727,-0.250235 0.08854,-0.380209 l 0.609375,0 C 13.976327,5.72098 14,5.56119 14,5.395833 14,5.198569 13.9755,5.011282 13.94271,4.822917 l -0.625,0 C 13.29031,4.697029 13.25712,4.572129 13.213544,4.453125 l 0.536458,-0.3125 C 13.615537,3.807109 13.425515,3.506516 13.197919,3.234375 L 12.66146,3.541667 C 12.57575,3.445717 12.48857,3.354319 12.390627,3.270833 L 12.69271,2.744792 C 12.414891,2.524843 12.108104,2.344141 11.770835,2.21875 l -0.04167,0.06771 c -0.108594,-0.08384 -0.237036,-0.146187 -0.375,-0.182291 -0.09397,-0.02456 -0.1807,-0.04186 -0.265625,-0.05729 -0.07841,-0.01425 -0.158228,-0.02445 -0.239584,-0.03125 -0.01553,-0.0018 -0.03129,-0.0037 -0.04687,-0.0052 C 10.738937,2.006326 10.675363,2 10.604167,2 z m 0,1.604167 c 0.191143,0 0.300105,0.01897 0.401041,0.03125 0.808828,0.181208 1.40625,0.892817 1.40625,1.760416 0,1.00685 -0.800443,1.8125 -1.807291,1.8125 l -0.364584,0 -1.177083,0 c -0.13992,0 -0.255208,-0.110313 -0.255208,-0.25 l 0,-1.5625 c 0.0017,-0.98963 0.807244,-1.791666 1.796875,-1.791666 z m -5.208334,5.192708 1.59375,0 c 0.115463,0.02357 0.203125,0.122565 0.203125,0.244792 l 0,1.5625 c -0.0017,0.98963 -0.807244,1.786458 -1.796875,1.786458 -0.199791,0 -0.306574,-0.01343 -0.411458,-0.02604 -0.805557,-0.182276 -1.395833,-0.894595 -1.395833,-1.760416 0,-1.006846 0.800447,-1.807292 1.807291,-1.807292 z"/>
</g>
</svg>
